<?xml version="1.0" encoding="utf-8"?>
<!-- Generator: Adobe Illustrator 25.0.1, SVG Export Plug-In . SVG Version: 6.00 Build 0)  -->
<svg version="1.1" id="Layer_1" xmlns="http://www.w3.org/2000/svg" xmlns:xlink="http://www.w3.org/1999/xlink" x="0px" y="0px"
	 viewBox="0 0 55.4 54" style="enable-background:new 0 0 55.4 54;" xml:space="preserve">
<style type="text/css">
	.st0{fill:#330000;}
	.st1{fill:#FF9A00;}
</style>
<g>
	<g id="Layer_2_11_">
		<g id="Surfaces_11_">
			<g id="Drawing_Surface_1_">
				<g id="Outline_no_shadow_11_">
					<path class="st0" d="M9.8,0h35.8c5.4,0,9.8,4.4,9.8,9.8v34.4c0,5.4-4.4,9.8-9.8,9.8H9.8C4.4,54,0,49.6,0,44.2V9.8
						C0,4.4,4.4,0,9.8,0z"/>
				</g>
			</g>
		</g>
		<g id="Outlined_Mnemonics_Logos_11_">
			<g id="Ai_1_">
				<path class="st1" d="M26.8,32.4h-8.6l-1.7,5.4c0,0.2-0.2,0.3-0.4,0.3h-4.3c-0.2,0-0.3-0.1-0.3-0.4l7.4-21.4
					c0.1-0.2,0.1-0.5,0.2-0.8c0.1-0.5,0.1-1,0.1-1.5c0-0.1,0.1-0.2,0.2-0.3c0,0,0,0,0.1,0h5.9c0.2,0,0.3,0.1,0.3,0.2l8.4,23.8
					c0.1,0.2,0,0.4-0.2,0.4h-4.8c-0.2,0-0.3-0.1-0.4-0.3L26.8,32.4z M19.6,27.7h5.9c-0.1-0.5-0.3-1.1-0.5-1.7
					c-0.2-0.6-0.4-1.3-0.6-2c-0.2-0.7-0.4-1.4-0.7-2.1c-0.2-0.7-0.4-1.4-0.6-2c-0.2-0.7-0.4-1.3-0.5-1.8h0c-0.2,1-0.5,2-0.8,3
					c-0.3,1.1-0.7,2.3-1.1,3.4C20.3,25.7,19.9,26.7,19.6,27.7L19.6,27.7z"/>
				<path class="st1" d="M39.2,17.8c-0.8,0-1.5-0.3-2-0.8c-0.5-0.6-0.8-1.3-0.8-2.1c0-0.8,0.3-1.5,0.8-2.1c0.6-0.5,1.3-0.8,2.1-0.8
					c0.9,0,1.6,0.3,2.1,0.8c0.5,0.6,0.8,1.3,0.8,2.1c0,0.8-0.3,1.5-0.8,2.1C40.7,17.5,40,17.8,39.2,17.8z M36.6,37.8V20
					c0-0.2,0.1-0.3,0.3-0.3h4.6c0.2,0,0.3,0.1,0.3,0.3v17.8c0,0.2-0.1,0.4-0.3,0.4h-4.5C36.7,38.2,36.6,38,36.6,37.8z"/>
			</g>
		</g>
	</g>
</g>
</svg>
