<?xml version="1.0" encoding="utf-8"?>
<!-- Generator: Adobe Illustrator 25.0.1, SVG Export Plug-In . SVG Version: 6.00 Build 0)  -->
<svg version="1.1" id="Layer_1" xmlns="http://www.w3.org/2000/svg" xmlns:xlink="http://www.w3.org/1999/xlink" x="0px" y="0px"
	 viewBox="0 0 55.4 54" style="enable-background:new 0 0 55.4 54;" xml:space="preserve">
<style type="text/css">
	.st0{fill:#001E36;}
	.st1{fill:#31A8FF;}
</style>
<g>
	<g id="Layer_2_12_">
		<g id="Surfaces_12_">
			<g id="Photo_Surface_1_">
				<g id="Outline_no_shadow_12_">
					<path class="st0" d="M9.8,0h35.8c5.4,0,9.8,4.4,9.8,9.8v34.4c0,5.4-4.4,9.8-9.8,9.8H9.8C4.4,54,0,49.6,0,44.2V9.8
						C0,4.4,4.4,0,9.8,0z"/>
				</g>
			</g>
		</g>
		<g id="Outlined_Mnemonics_Logos_12_">
			<g id="Ps_1_">
				<g>
					<path class="st1" d="M11.3,37.9V14.1c0-0.2,0.1-0.3,0.2-0.3c0.4,0,0.8,0,1.3,0c0.5,0,1.1,0,1.8,0c0.6,0,1.3,0,2,0
						c0.7,0,1.4,0,2.1,0c1.9,0,3.5,0.2,4.8,0.7c1.2,0.4,2.2,1,3.1,1.9c0.7,0.7,1.3,1.6,1.7,2.6c0.3,1,0.5,2,0.5,3
						c0,2-0.5,3.6-1.4,4.9c-0.9,1.3-2.2,2.3-3.7,2.8c-1.6,0.6-3.3,0.8-5.2,0.8c-0.5,0-0.9,0-1.2,0c-0.2,0-0.6,0-1,0v7.4
						c0,0.2-0.1,0.3-0.3,0.3c0,0-0.1,0-0.1,0h-4.4C11.4,38.2,11.3,38.1,11.3,37.9z M16.3,18.3v7.7c0.3,0,0.6,0,0.9,0h1.2
						c0.9,0,1.8-0.1,2.7-0.4c0.7-0.2,1.4-0.6,1.9-1.2c0.5-0.6,0.7-1.4,0.7-2.4c0-0.7-0.2-1.4-0.5-2c-0.4-0.6-1-1.1-1.6-1.3
						c-0.9-0.3-1.8-0.5-2.7-0.5c-0.6,0-1.1,0-1.6,0C16.8,18.3,16.5,18.3,16.3,18.3L16.3,18.3z"/>
					<path class="st1" d="M43.1,24.7c-0.7-0.4-1.4-0.6-2.2-0.8c-0.8-0.2-1.7-0.3-2.6-0.3c-0.5,0-0.9,0-1.4,0.2
						c-0.3,0.1-0.5,0.2-0.7,0.5c-0.1,0.2-0.2,0.4-0.2,0.6c0,0.2,0.1,0.4,0.2,0.6c0.2,0.3,0.5,0.5,0.8,0.6c0.5,0.3,1.1,0.5,1.6,0.8
						c1.2,0.4,2.4,1,3.5,1.7c0.8,0.5,1.4,1.1,1.8,1.9c0.4,0.7,0.6,1.6,0.5,2.4c0,1.1-0.3,2.2-0.9,3.1c-0.6,0.9-1.5,1.6-2.6,2.1
						c-1.1,0.5-2.5,0.7-4.2,0.7c-1.1,0-2.1-0.1-3.1-0.3c-0.8-0.1-1.6-0.4-2.4-0.7c-0.2-0.1-0.3-0.3-0.3-0.4v-4c0-0.1,0-0.2,0.1-0.2
						c0.1,0,0.1,0,0.2,0c0.9,0.5,1.9,0.9,2.9,1.1c0.9,0.2,1.8,0.3,2.7,0.4c0.9,0,1.5-0.1,1.9-0.3c0.4-0.2,0.6-0.6,0.6-1
						c0-0.3-0.2-0.6-0.6-0.9c-0.4-0.3-1.1-0.7-2.3-1.1c-1.2-0.4-2.3-1-3.3-1.7c-0.7-0.5-1.3-1.2-1.7-2c-0.4-0.7-0.6-1.5-0.5-2.4
						c0-1,0.3-1.9,0.8-2.8c0.6-0.9,1.4-1.7,2.4-2.1c1.1-0.5,2.5-0.8,4.1-0.8c1,0,1.9,0.1,2.9,0.2c0.7,0.1,1.4,0.3,2,0.5
						c0.1,0,0.2,0.1,0.2,0.2c0,0.1,0,0.2,0,0.3v3.8c0,0.1,0,0.2-0.1,0.2C43.3,24.7,43.2,24.7,43.1,24.7z"/>
				</g>
			</g>
		</g>
	</g>
</g>
</svg>
