<?xml version="1.0" encoding="utf-8"?>
<!-- Generator: Adobe Illustrator 25.0.1, SVG Export Plug-In . SVG Version: 6.00 Build 0)  -->
<svg version="1.1" id="Layer_1" xmlns="http://www.w3.org/2000/svg" xmlns:xlink="http://www.w3.org/1999/xlink" x="0px" y="0px"
	 viewBox="0 0 55.4 54" style="enable-background:new 0 0 55.4 54;" xml:space="preserve">
<style type="text/css">
	.st0{fill:#470137;}
	.st1{fill:#FF61F6;}
</style>
<g>
	<g id="Layer_2_14_">
		<g id="Surfaces_14_">
			<g id="UI_UX_Surface_3_">
				<g id="Outline_no_shadow_14_">
					<path class="st0" d="M9.8,0h35.8c5.4,0,9.8,4.4,9.8,9.8v34.4c0,5.4-4.4,9.8-9.8,9.8H9.8C4.4,54,0,49.6,0,44.2V9.8
						C0,4.4,4.4,0,9.8,0z"/>
				</g>
			</g>
		</g>
		<g id="Outlined_Mnemonics_Logos_14_">
			<g id="Xd_1_">
				<path class="st1" d="M29.1,14.2l-6.9,11.4l7.4,12.1c0,0.1,0.1,0.2,0,0.3c0,0.1-0.1,0-0.3,0.1h-5.3c-0.4,0-0.6,0-0.8-0.3
					c-0.5-1-1-1.9-1.5-2.9c-0.5-1-1-1.9-1.6-2.9c-0.6-1-1.1-2-1.7-3h0c-0.5,1-1,2-1.5,3c-0.5,1-1.1,2-1.6,3c-0.5,1-1.1,2-1.6,2.9
					c-0.1,0.2-0.3,0.2-0.5,0.2H8.2c-0.1,0-0.2,0-0.2-0.1c0-0.1,0-0.2,0.1-0.3L15.3,26l-7-11.8c-0.1-0.1-0.1-0.2,0-0.2
					c0.1-0.1,0.1-0.1,0.2-0.1h5.2c0.1,0,0.2,0,0.3,0.1c0.1,0.1,0.2,0.1,0.2,0.2c0.4,1,0.9,2,1.5,3c0.5,1,1.1,2,1.7,2.9
					c0.6,1,1.1,1.9,1.5,2.9h0c0.5-1,1-2,1.5-3c0.5-1,1-1.9,1.6-2.9c0.5-1,1-2,1.5-2.9c0-0.1,0.1-0.2,0.1-0.2c0.1,0,0.2-0.1,0.3-0.1
					h4.9c0.1,0,0.2,0,0.3,0.2C29.2,14.1,29.2,14.1,29.1,14.2L29.1,14.2z"/>
				<path class="st1" d="M39.8,38.5c-1.7,0-3.4-0.3-5-1c-1.4-0.7-2.7-1.8-3.5-3.1c-0.8-1.4-1.3-3.2-1.3-5.3c0-1.7,0.4-3.4,1.3-4.9
					c0.9-1.5,2.1-2.7,3.7-3.6c1.6-0.9,3.6-1.3,5.8-1.3c0.1,0,0.3,0,0.5,0c0.2,0,0.4,0,0.7,0.1v-7.3c0-0.2,0.1-0.3,0.2-0.3h4.7
					c0.1,0,0.2,0.1,0.2,0.2c0,0,0,0,0,0.1v22c0,0.4,0,0.9,0.1,1.4c0,0.5,0.1,0.9,0.1,1.3c0,0.2-0.1,0.3-0.2,0.4
					c-1.2,0.5-2.5,0.9-3.8,1.1C42.2,38.4,41,38.5,39.8,38.5z M42,33.9V23.8c-0.2-0.1-0.4-0.1-0.6-0.1c-0.3,0-0.5,0-0.8,0
					c-0.9,0-1.8,0.2-2.6,0.6c-0.8,0.4-1.5,1-2,1.7c-0.5,0.7-0.8,1.7-0.8,2.9c0,0.8,0.1,1.6,0.4,2.4c0.2,0.6,0.6,1.2,1,1.6
					c0.4,0.4,1,0.7,1.6,0.9c0.6,0.2,1.3,0.3,1.9,0.3c0.3,0,0.7,0,1,0C41.5,34.1,41.8,34,42,33.9z"/>
			</g>
		</g>
	</g>
</g>
</svg>
