<svg width="36" height="36" viewBox="0 0 36 36" fill="none" xmlns="http://www.w3.org/2000/svg">
<path d="M18 33C26.2843 33 33 26.2843 33 18C33 9.71573 26.2843 3 18 3C9.71573 3 3 9.71573 3 18C3 26.2843 9.71573 33 18 33Z" fill="#24BECA"/>
<path d="M24.3755 23.2034C23.5787 24.2815 22.5474 25.4065 21.188 26.2502C19.8755 27.094 18.3755 27.7502 16.5943 27.7502C14.9537 27.7502 13.5943 26.9065 12.8443 26.2034C11.7193 25.1252 11.1099 23.5784 10.9224 22.1252C10.3599 17.6252 13.1255 11.6721 17.3912 9.09399C18.3755 8.48462 19.4537 8.20337 20.4849 8.20337C22.5474 8.20337 24.0943 9.65649 24.2818 11.4377C24.4693 13.0315 23.8599 14.3909 22.0787 15.2815C21.188 15.7502 20.7193 15.7034 20.5787 15.5159C20.4849 15.3752 20.5318 15.1409 20.7193 15.0002C22.3599 13.6409 22.4068 12.5159 22.2193 10.9221C22.0787 9.89087 21.4224 9.23462 20.6724 9.23462C17.438 9.23462 12.7505 16.5002 13.4068 21.7502C13.6412 23.8127 14.9068 26.2034 17.5318 26.2034C18.3755 26.2034 19.313 25.969 20.1099 25.5471C21.938 24.6096 22.7349 23.9534 23.813 22.4534C23.9537 22.2659 24.0943 22.0315 24.2349 21.844C24.3287 21.6565 24.5162 21.6096 24.6568 21.6096C24.7974 21.6096 24.9849 21.7502 24.9849 21.9846C24.9849 22.1252 24.938 22.4065 24.7505 22.6409C24.7037 22.7346 24.563 23.0159 24.3755 23.2034Z" fill="white"/>
</svg>
