<svg width="64" height="64" viewBox="0 0 64 64" fill="none" xmlns="http://www.w3.org/2000/svg">
<g clip-path="url(#clip0_164_529)">
<path d="M32 63.811C49.6731 63.811 64 49.4841 64 31.811C64 14.1379 49.6731 -0.188965 32 -0.188965C14.3269 -0.188965 0 14.1379 0 31.811C0 49.4841 14.3269 63.811 32 63.811Z" fill="#20C4CB"/>
<path d="M40.2939 36.2851C38.9878 37.6879 37.1592 38.3893 36.3102 38.3893C35.3306 38.3893 34.8082 37.8154 34.6775 36.9227C34.6122 36.6039 34.6776 36.2213 34.7429 35.9025C35.0694 33.9257 35.7878 32.6504 35.7878 32.3316C35.7878 32.204 35.7224 32.1403 35.6571 32.1403C35.0041 32.1403 32.7837 34.3721 32.4571 35.8387L32.1959 37.0502C32 37.8792 31.2163 38.3893 30.6286 38.3893C30.3674 38.3893 30.1714 38.2618 30.1061 37.943C30.1061 37.8154 30.1061 37.6879 30.1061 37.5604L30.2367 36.9227C29.0612 37.8154 27.7551 38.3893 27.1674 38.3893C26.3184 38.3893 25.8612 37.943 25.7306 37.3053C25.2082 38.0067 24.4898 38.3893 23.7061 38.3893C22.7265 38.3893 21.8123 37.7517 21.3551 36.7952C20.7021 37.4966 19.9184 38.198 19.0041 38.7719C17.6327 39.6009 16.1306 40.3023 14.3674 40.3023C12.7347 40.3023 11.298 39.4733 10.5796 38.7719C9.4041 37.7517 8.81635 36.1575 8.62043 34.7547C8.03268 30.2911 10.8408 24.3608 15.2163 21.8102C16.1959 21.2363 17.3061 20.9175 18.351 20.9175C20.4408 20.9175 22.0082 22.3841 22.2041 24.1058C22.4 25.6999 21.747 27.039 19.9837 27.868C19.0694 28.3143 18.6123 28.3143 18.4816 28.0593C18.4163 27.9317 18.4163 27.6767 18.6123 27.5491C20.3102 26.21 20.3102 25.0623 20.1143 23.4681C19.9837 22.4479 19.3306 21.8102 18.547 21.8102C15.151 21.8102 10.449 29.0157 11.1021 34.2445C11.3633 36.2851 12.6694 38.6444 15.2816 38.6444C16.1306 38.6444 17.1102 38.3893 17.8939 38.0067C19.3306 37.3053 20.1796 36.7314 20.9633 35.7749C20.7674 33.3518 22.9225 30.2911 26.0572 30.2911C27.4286 30.2911 28.5388 30.8012 28.6694 31.8852C28.8653 33.2243 27.6898 33.4794 27.2327 33.4794C26.8408 33.4794 26.2531 33.3518 26.1878 33.033C26.1225 32.6504 27.0367 32.8417 26.9061 32.0127C26.8408 31.5026 26.2531 31.3113 25.7306 31.3113C23.7714 31.3113 22.6612 33.9895 22.8572 35.6474C22.9225 36.4126 23.3796 37.1778 24.0327 37.1778C24.6204 37.1778 25.4694 36.3488 25.7306 35.201C25.9265 34.3721 26.7102 33.862 27.298 33.862C27.6245 33.862 27.8204 33.9895 27.8204 34.3083C27.8204 34.4358 27.8204 34.5634 27.8204 34.6909C27.7551 35.0097 27.4939 36.2213 27.4939 36.4126C27.4939 36.6039 27.6245 36.9227 28.0163 36.9227C28.3429 36.9227 29.3878 36.3488 30.4327 35.4561C30.7592 33.862 31.151 31.8852 31.151 31.7577C31.2816 31.12 31.5429 30.4186 32.849 30.4186C33.1102 30.4186 33.3061 30.5461 33.3714 30.865C33.3714 30.9925 33.3714 31.12 33.3714 31.2476L33.0449 32.9692C34.2204 31.4389 36.049 30.2911 37.1592 30.2911C37.6163 30.2911 38.0082 30.5461 38.0735 30.9925C38.1388 31.2476 38.0082 31.6939 37.8775 32.204C37.4857 33.2243 37.0286 34.8184 36.7673 36.1575C36.702 36.4764 36.8327 36.8589 37.3551 36.8589C37.8122 36.8589 39.1837 36.3488 40.2939 34.8822C40.2939 34.6909 40.2939 34.4996 40.2939 34.2445C40.2939 33.0968 40.3592 32.204 40.6204 31.5026C40.8163 30.8012 41.7306 30.1635 42.3184 30.1635C42.6449 30.1635 42.8408 30.3548 42.8408 30.6737C42.8408 30.8012 42.8408 30.9287 42.7755 31.0563C42.3837 32.2678 42.1224 33.3518 42.1224 34.4358C42.1224 35.0735 42.2531 36.03 42.3837 36.5401C42.3837 36.6677 42.449 36.7314 42.5796 36.7314C42.7755 36.7314 44.0816 35.5199 44.9959 33.9895C44.1469 33.4794 43.6898 32.5229 43.6898 31.3751C43.6898 29.4621 44.8653 28.4419 46.0408 28.4419C46.9551 28.4419 47.7388 29.0795 47.7388 30.3548C47.7388 31.1838 47.4122 32.0765 46.9551 32.9692C46.9551 32.9692 47.151 32.9692 47.2163 32.9692C47.9347 32.9692 48.4571 32.6504 48.7837 32.2678C48.9143 32.1403 49.0449 32.0127 49.1755 31.949C50.0898 30.865 51.4612 30.0998 53.0286 30.0998C54.4 30.0998 55.5102 30.6099 55.6408 31.6939C55.8367 33.033 54.5959 33.3518 54.2041 33.3518C53.8122 33.3518 53.1592 33.2243 53.1592 32.9055C53.0939 32.5866 54.0081 32.7142 53.9428 31.8852C53.8775 31.3751 53.2898 31.12 52.7673 31.12C50.9388 31.12 49.6979 33.4794 49.8939 35.4561C49.9592 36.2213 50.351 36.9865 51.0694 36.9865C51.6571 36.9865 52.5061 36.1575 52.8326 35.0097C53.0286 34.2445 53.8122 33.6707 54.4 33.6707C54.6612 33.6707 54.9224 33.7982 54.9224 34.117C54.9224 34.3083 54.8571 34.6271 54.5959 35.9025C54.4653 36.4126 54.4653 36.9227 54.4653 37.2415C54.5959 38.0067 54.9224 38.5169 55.249 38.8357C55.3796 38.9632 55.4449 39.0908 55.4449 39.1545C55.4449 39.3458 55.3143 39.5371 55.053 39.5371C54.9877 39.5371 54.8571 39.5371 54.7918 39.4733C53.3551 38.8995 52.7673 37.943 52.6367 37.114C52.1143 37.8154 51.3959 38.1343 50.6122 38.1343C49.3714 38.1343 48.1306 37.0502 47.9347 35.6474C47.8694 35.0735 47.9347 34.4358 48.1306 33.862C47.6081 34.1808 47.0857 34.3721 46.5633 34.3721C46.3673 34.3721 46.2367 34.3721 46.1061 34.3721C44.8653 36.0938 43.5592 37.3053 42.5796 37.8792C42.1877 38.0705 41.7959 38.198 41.5347 38.198C41.3388 38.198 41.0775 38.1343 40.9469 37.943C40.5551 37.6879 40.3592 37.0502 40.2939 36.2851ZM44.7347 30.5461C44.7347 31.3113 45.1265 32.0765 45.5837 32.5866C45.7796 32.0765 45.9102 31.5664 45.9102 31.0563C45.9102 30.0998 45.5184 29.6534 45.2571 29.6534C44.8653 29.6534 44.7347 30.1635 44.7347 30.5461Z" fill="white"/>
</g>
<defs>
<clipPath id="clip0_164_529">
<rect width="64" height="64" fill="white"/>
</clipPath>
</defs>
</svg>
