<svg width="24" height="24" viewBox="0 0 24 24" fill="none" xmlns="http://www.w3.org/2000/svg">
<path d="M7.27312 16.9488C7.08836 16.8208 6.84443 16.7409 6.4821 16.6223C6.47918 16.6213 6.47627 16.6204 6.47334 16.6194L5.25 21.1326L8.28728 19.9145L10.2933 22.5L11.3171 18.723C11.2928 18.7308 11.268 18.7387 11.2426 18.7469C11.1737 18.7689 11.1002 18.7925 11.0229 18.8168C10.5981 18.9505 9.9589 19.1406 9.3317 18.9371C8.69241 18.7295 8.28212 18.2001 8.01246 17.8346C7.95445 17.756 7.90127 17.6828 7.85178 17.6147C7.62381 17.3009 7.47437 17.0952 7.29234 16.9628L7.27312 16.9488Z" fill="#FFA644"/>
<path d="M12.8055 18.6725L13.843 22.5L15.849 19.9145L18.8863 21.1326L17.675 16.664C17.369 16.7651 17.156 16.8425 16.9907 16.9628L16.745 17.2007C16.6515 17.3116 16.5525 17.4479 16.4313 17.6147C16.3818 17.6828 16.3287 17.756 16.2706 17.8346C16.001 18.2001 15.5906 18.7295 14.9514 18.9371C14.3239 19.1409 13.6848 18.9508 13.2599 18.817C13.1822 18.7925 13.109 18.769 13.0397 18.7468C12.9563 18.72 12.8785 18.6951 12.8055 18.6725Z" fill="#FFA644"/>
<path d="M7.70382 16.3973C8.37328 16.8845 8.74344 18.0109 9.54763 18.2719C10.3234 18.5237 11.2814 17.8388 12.1416 17.8388C13.0017 17.8388 13.9593 18.5241 14.7355 18.2719C15.5397 18.0109 15.9098 16.8845 16.5793 16.3973C17.2553 15.9055 18.4389 15.8976 18.9312 15.2216C19.4184 14.5521 19.0632 13.4263 19.3243 12.6225C19.576 11.8468 20.5336 11.1484 20.5336 10.2888C20.5336 9.42909 19.576 8.73073 19.3243 7.95498C19.0632 7.15078 19.4184 6.02492 18.9312 5.35592C18.4394 4.67994 17.2553 4.67248 16.5793 4.18018C15.9098 3.693 15.5397 2.56667 14.7355 2.3056C13.9597 2.05385 13.0017 2.73869 12.1416 2.73869C11.2814 2.73869 10.3238 2.05385 9.54763 2.3056C8.74344 2.56667 8.37328 3.693 7.70382 4.18018C7.02783 4.67201 5.84416 4.67994 5.35185 5.35592C4.86468 6.02538 5.21992 7.15078 4.95885 7.95498C4.70757 8.73073 3.75 9.42862 3.75 10.2888C3.75 11.1489 4.70757 11.8468 4.95932 12.6225C5.22039 13.4267 4.86514 14.5526 5.35232 15.2216C5.84416 15.8976 7.0283 15.905 7.70429 16.3973H7.70382Z" fill="#FFA644"/>
<path d="M11.814 5.86673C11.9402 5.59313 12.329 5.59313 12.4552 5.86673L13.571 8.28574C13.6224 8.39725 13.7281 8.47403 13.85 8.48849L16.4954 8.80214C16.7947 8.83762 16.9148 9.20744 16.6936 9.412L14.7378 11.2207C14.6476 11.3041 14.6073 11.4283 14.6312 11.5487L15.1504 14.1616C15.2091 14.4571 14.8945 14.6857 14.6316 14.5385L12.307 13.2373C12.1999 13.1774 12.0693 13.1774 11.9621 13.2373L9.63757 14.5385C9.37465 14.6857 9.06007 14.4571 9.11879 14.1616L9.63796 11.5487C9.66189 11.4283 9.62153 11.3041 9.53137 11.2207L7.57555 9.412C7.35434 9.20744 7.4745 8.83762 7.77371 8.80214L10.4191 8.48849C10.5411 8.47403 10.6467 8.39725 10.6982 8.28574L11.814 5.86673Z" fill="white"/>
</svg>
