<?xml version="1.0" encoding="UTF-8"?>
<svg width="50px" height="50px" viewBox="0 0 50 50" version="1.1" xmlns="http://www.w3.org/2000/svg" xmlns:xlink="http://www.w3.org/1999/xlink">
    <!-- Generator: Sketch 52 (66869) - http://www.bohemiancoding.com/sketch -->
    <title>Group 4</title>
    <desc>Created with Sketch.</desc>
    <g id="Page-1" stroke="none" stroke-width="1" fill="none" fill-rule="evenodd">
        <g id="Product_Photo" transform="translate(-469.000000, -389.000000)">
            <g id="Group-4" transform="translate(469.000000, 389.000000)">
                <rect id="Rectangle" fill="#000000" opacity="0.400809152" x="0" y="0" width="50" height="50" rx="10"></rect>
                <polygon id="Path" fill="#FFFFFF" points="34.273875 31.976125 30.54775 28.25 28.25 30.54775 31.976125 34.273875 28.25 38 38 38 38 28.25"></polygon>
                <polygon id="Path" fill="#FFFFFF" points="21.75 12 12 12 12 21.75 15.726125 18.023875 19.4173125 21.7118125 21.7150625 19.4140625 18.023875 15.726125"></polygon>
                <polygon id="Path" fill="#FFFFFF" points="21.75 30.54775 19.45225 28.25 15.726125 31.976125 12 28.25 12 38 21.75 38 18.023875 34.273875"></polygon>
                <polygon id="Path" fill="#FFFFFF" points="38 12 28.25 12 31.976125 15.726125 28.2849375 19.4140625 30.5826875 21.7118125 34.273875 18.023875 38 21.75"></polygon>
            </g>
        </g>
    </g>
</svg>