<svg width="25" height="25" viewBox="0 0 25 25" fill="none" xmlns="http://www.w3.org/2000/svg">
<g clip-path="url(#clip0_210_5666)">
<path d="M6.79565 14H3.79565C3.59674 14 3.40598 13.921 3.26532 13.7803C3.12467 13.6397 3.04565 13.4489 3.04565 13.25C3.04565 13.0511 3.12467 12.8603 3.26532 12.7197C3.40598 12.579 3.59674 12.5 3.79565 12.5H6.04565V8H3.79565C3.59674 8 3.40598 7.92098 3.26532 7.78033C3.12467 7.63968 3.04565 7.44891 3.04565 7.25C3.04565 7.05109 3.12467 6.86032 3.26532 6.71967C3.40598 6.57902 3.59674 6.5 3.79565 6.5H6.79565C6.99457 6.5 7.18533 6.57902 7.32598 6.71967C7.46664 6.86032 7.54565 7.05109 7.54565 7.25V13.25C7.54565 13.4489 7.46664 13.6397 7.32598 13.7803C7.18533 13.921 6.99457 14 6.79565 14ZM12.0457 14H10.5457C10.1478 14 9.7663 13.842 9.48499 13.5607C9.20369 13.2794 9.04565 12.8978 9.04565 12.5V8C9.04565 7.60218 9.20369 7.22064 9.48499 6.93934C9.7663 6.65804 10.1478 6.5 10.5457 6.5H12.7957C12.9946 6.5 13.1853 6.57902 13.326 6.71967C13.4666 6.86032 13.5457 7.05109 13.5457 7.25C13.5457 7.44891 13.4666 7.63968 13.326 7.78033C13.1853 7.92098 12.9946 8 12.7957 8H10.5457V9.5H12.0457C12.4435 9.5 12.825 9.65804 13.1063 9.93934C13.3876 10.2206 13.5457 10.6022 13.5457 11V12.5C13.5457 12.8978 13.3876 13.2794 13.1063 13.5607C12.825 13.842 12.4435 14 12.0457 14ZM10.5457 11V12.5H12.0457V11H10.5457ZM18.0457 14H16.5457C16.1478 14 15.7663 13.842 15.485 13.5607C15.2037 13.2794 15.0457 12.8978 15.0457 12.5V8C15.0457 7.60218 15.2037 7.22064 15.485 6.93934C15.7663 6.65804 16.1478 6.5 16.5457 6.5H18.0457C18.4435 6.5 18.825 6.65804 19.1063 6.93934C19.3876 7.22064 19.5457 7.60218 19.5457 8V12.5C19.5457 12.8978 19.3876 13.2794 19.1063 13.5607C18.825 13.842 18.4435 14 18.0457 14ZM16.5457 8V12.5H18.0457V8H16.5457Z" fill="black"/>
<path d="M6.79565 11H3.79565C3.59674 11 3.40598 10.921 3.26532 10.7803C3.12467 10.6397 3.04565 10.4489 3.04565 10.25C3.04565 10.0511 3.12467 9.86032 3.26532 9.71967C3.40598 9.57902 3.59674 9.5 3.79565 9.5H6.79565C6.99457 9.5 7.18533 9.57902 7.32598 9.71967C7.46664 9.86032 7.54565 10.0511 7.54565 10.25C7.54565 10.4489 7.46664 10.6397 7.32598 10.7803C7.18533 10.921 6.99457 11 6.79565 11ZM12.0457 20C5.31665 20 0.0456543 17.3645 0.0456543 14C0.0755706 13.3663 0.252737 12.7483 0.5631 12.195C0.873462 11.6417 1.30848 11.1684 1.83365 10.8125C1.9906 10.6902 2.18971 10.6352 2.38718 10.6597C2.58466 10.6841 2.76432 10.7861 2.88665 10.943C3.00899 11.0999 3.06396 11.2991 3.03949 11.4965C3.01501 11.694 2.9131 11.8737 2.75615 11.996C2.41854 12.2195 2.1348 12.5152 1.92545 12.8618C1.7161 13.2084 1.58638 13.5972 1.54565 14C1.54565 16.1285 5.85815 18.5 12.0457 18.5C12.2446 18.5 12.4353 18.579 12.576 18.7197C12.7166 18.8603 12.7957 19.0511 12.7957 19.25C12.7957 19.4489 12.7166 19.6397 12.576 19.7803C12.4353 19.921 12.2446 20 12.0457 20ZM14.2957 19.895C14.0967 19.9043 13.9023 19.8343 13.755 19.7003C13.6077 19.5662 13.5198 19.3792 13.5104 19.1803C13.5011 18.9813 13.5711 18.7869 13.7051 18.6396C13.8392 18.4923 14.0262 18.4043 14.2252 18.395C18.9682 17.9405 22.5457 16.049 22.5457 14C22.5048 13.597 22.3748 13.2082 22.1652 12.8616C21.9556 12.515 21.6716 12.2193 21.3337 11.996C21.2528 11.9366 21.1847 11.8616 21.1334 11.7754C21.0821 11.6892 21.0486 11.5936 21.0349 11.4942C21.0212 11.3948 21.0276 11.2937 21.0536 11.1969C21.0797 11.1 21.1249 11.0093 21.1866 10.9303C21.2483 10.8512 21.3253 10.7853 21.4129 10.7365C21.5006 10.6877 21.5971 10.6569 21.6968 10.6461C21.7965 10.6353 21.8974 10.6445 21.9935 10.6734C22.0896 10.7022 22.1789 10.75 22.2562 10.814C22.7817 11.1692 23.2172 11.6422 23.5278 12.1953C23.8385 12.7484 24.0158 13.3663 24.0457 14C24.0457 16.9175 20.0662 19.3415 14.3677 19.892L14.2957 19.895Z" fill="black"/>
<path d="M9.79565 22.25C9.64712 22.2503 9.50186 22.2064 9.37827 22.124C9.25469 22.0416 9.15835 21.9244 9.10148 21.7872C9.0446 21.65 9.02975 21.499 9.0588 21.3533C9.08785 21.2077 9.15949 21.0739 9.26465 20.969L10.9852 19.25L9.26465 17.531C9.12804 17.3896 9.05244 17.2001 9.05415 17.0035C9.05586 16.8068 9.13473 16.6187 9.27379 16.4796C9.41285 16.3406 9.60096 16.2617 9.7976 16.26C9.99425 16.2583 10.1837 16.3339 10.3252 16.4705L12.5752 18.7205C12.7158 18.8611 12.7947 19.0519 12.7947 19.2508C12.7947 19.4496 12.7158 19.6404 12.5752 19.781L10.3252 22.031C10.1846 22.1712 9.99418 22.25 9.79565 22.25ZM21.7957 6.5C21.3506 6.5 20.9156 6.36804 20.5456 6.12081C20.1756 5.87357 19.8872 5.52217 19.7169 5.11104C19.5466 4.69991 19.5021 4.24751 19.5889 3.81105C19.6757 3.37459 19.89 2.97368 20.2047 2.65901C20.5193 2.34434 20.9202 2.13005 21.3567 2.04323C21.7932 1.95642 22.2456 2.00097 22.6567 2.17127C23.0678 2.34157 23.4192 2.62996 23.6665 2.99997C23.9137 3.36998 24.0457 3.80499 24.0457 4.25C24.0457 4.84674 23.8086 5.41903 23.3866 5.84099C22.9647 6.26295 22.3924 6.5 21.7957 6.5ZM21.7957 3.5C21.6473 3.5 21.5023 3.54399 21.379 3.6264C21.2556 3.70881 21.1595 3.82594 21.1027 3.96299C21.046 4.10003 21.0311 4.25083 21.0601 4.39632C21.089 4.5418 21.1604 4.67544 21.2653 4.78033C21.3702 4.88522 21.5038 4.95665 21.6493 4.98559C21.7948 5.01453 21.9456 4.99968 22.0827 4.94291C22.2197 4.88615 22.3368 4.79002 22.4193 4.66668C22.5017 4.54334 22.5457 4.39834 22.5457 4.25C22.5457 4.05109 22.4666 3.86032 22.326 3.71967C22.1853 3.57902 21.9946 3.5 21.7957 3.5Z" fill="black"/>
</g>
<defs>
<clipPath id="clip0_210_5666">
<rect width="24" height="24" fill="white" transform="translate(0.0456543 0.5)"/>
</clipPath>
</defs>
</svg>
