<svg width="24" height="24" viewBox="0 0 24 24" fill="none" xmlns="http://www.w3.org/2000/svg">
<g clip-path="url(#clip0_1208_1599)">
<path d="M12.0543 2.10229C11.8116 1.96476 11.5144 1.96602 11.2729 2.10544L4.89453 5.78797C5.97478 6.41164 11.1209 9.38277 11.7079 9.72171L18.5236 5.76824L12.0543 2.10229Z" fill="#FFA644"/>
<path d="M4.29449 13.9355C4.29449 14.2272 4.4501 14.4967 4.70268 14.6425L11.3649 18.489V10.3757L4.29443 6.29358V13.9355H4.29449Z" fill="#FFA644"/>
<path d="M7.69822 9.57012C7.73946 9.48692 7.87119 9.55623 7.91243 9.68281L8.51279 11.5258C8.52982 11.5781 8.56603 11.6269 8.60774 11.6537L10.0786 12.6008C10.1796 12.6659 10.2203 12.8289 10.1448 12.8659L9.04498 13.4043C9.01379 13.4196 8.99995 13.4604 9.00871 13.5114L9.31739 15.308C9.33859 15.4314 9.23202 15.4628 9.1441 15.3591L7.86401 13.8489C7.82771 13.806 7.78295 13.7825 7.74664 13.7871L6.46656 13.9504C6.37864 13.9616 6.27206 13.818 6.29326 13.7169L6.60194 12.2451C6.6107 12.2034 6.59687 12.148 6.56568 12.0999L5.46586 10.4042C5.39032 10.2877 5.43103 10.1675 5.53205 10.2088L7.00291 10.8094C7.04463 10.8264 7.08084 10.8157 7.09786 10.7814L7.69822 9.57012Z" fill="white"/>
<path d="M19.0295 13.9072V6.38989L12.0928 10.4136V18.3745L18.629 14.6008C18.8769 14.4577 19.0295 14.1934 19.0295 13.9072Z" fill="#FFA644"/>
<mask id="mask0_1208_1599" style="mask-type:alpha" maskUnits="userSpaceOnUse" x="-1" y="9" width="13" height="16">
<path d="M3.32854 9.05872V14.647L4.29412 16.1175L6.64706 16.7058L7.82353 16.4117L10.1765 17.8822L11.0588 19.9411V22.5881L7.52941 24.0587L2.52941 20.8234L-1 17.8822L0.470588 12.294L3.32854 9.05872Z" fill="#D9D9D9"/>
</mask>
<g mask="url(#mask0_1208_1599)">
<path d="M13.9701 19.5155C15.1855 19.3381 16.2954 19.045 17.2434 18.6631C19.2692 17.8469 20.5562 16.625 20.5562 15.2594C20.5562 12.8021 16.3892 10.8101 11.2488 10.8101C6.10848 10.8101 1.94141 12.8021 1.94141 15.2594C1.94141 17.1481 4.40334 18.762 7.87686 19.4077" stroke="#FFA644" stroke-width="1.14371" stroke-linecap="round"/>
<path d="M10.4507 19.592C10.6077 19.7665 10.5532 20.0429 10.3417 20.1447L7.74968 21.3923C7.48565 21.5194 7.191 21.2871 7.25291 21.0007L7.97235 17.6725C8.03301 17.3919 8.38603 17.298 8.5781 17.5114L10.4507 19.592Z" fill="#FFA644"/>
</g>
<mask id="mask1_1208_1599" style="mask-type:alpha" maskUnits="userSpaceOnUse" x="11" y="9" width="14" height="15">
<path d="M19.9773 9.05872V14.647L18.7064 15.8234L16.3534 16.4117L15.177 16.1175L12.824 17.5881L11.9417 19.647V22.294L15.4711 23.7646L20.4711 20.5293L24.0005 17.5881L22.5299 11.9999L19.9773 9.05872Z" fill="#D9D9D9"/>
</mask>
<g mask="url(#mask1_1208_1599)">
<path d="M15.7347 19.2213C16.9502 19.0439 17.6805 18.7509 18.6285 18.3689C20.6544 17.5527 21.9414 16.3308 21.9414 14.9652C21.9414 12.5079 18.1538 10.5159 13.0135 10.5159C7.87313 10.5159 3.70605 12.5079 3.70605 14.9652C3.70605 16.854 6.16799 18.4678 9.64151 19.1135" stroke="#FFA644" stroke-width="1.14371" stroke-linecap="round"/>
</g>
</g>
<defs>
<clipPath id="clip0_1208_1599">
<rect width="24" height="24" fill="white"/>
</clipPath>
</defs>
</svg>
