<svg width="149" height="34" viewBox="0 0 149 34" fill="none" xmlns="http://www.w3.org/2000/svg">
<g clip-path="url(#clip0_503_7068)">
<path d="M84.7928 26.2509H83.6143V30.3925H84.7928V26.2509Z" fill="#B5BFC9"/>
<path d="M84.7928 24.8865H83.6143V25.8024H84.7928V24.8865Z" fill="#B5BFC9"/>
<path d="M59.0949 24.8865H57.8635V30.3924H61.6245V29.3369H59.0949V24.8865Z" fill="#B5BFC9"/>
<path d="M64.0582 25.9068C62.7478 25.9068 61.71 26.9184 61.71 28.1935C61.71 29.4689 62.7478 30.4803 64.0582 30.4803C65.3774 30.4803 66.4154 29.4689 66.4154 28.1935C66.4154 26.9184 65.3776 25.9068 64.0582 25.9068ZM64.0582 29.3897C63.3985 29.3897 62.9061 28.8883 62.9061 28.1935C62.9061 27.5076 63.3985 26.9974 64.0582 26.9974C64.7179 26.9974 65.2104 27.5076 65.2104 28.1935C65.2104 28.8885 64.7179 29.3897 64.0582 29.3897Z" fill="#B5BFC9"/>
<path d="M71.3574 29.4601C71.1464 29.4601 70.9616 29.337 70.9616 28.9587V27.2004H72.0852V26.2508H70.9616V25.0573H69.783V26.2508H68.236V25.0573H67.0574V26.2508H66.4154V27.2004H67.0574V28.9762C67.0574 29.97 67.5323 30.4802 68.4118 30.4802C68.878 30.4802 69.2651 30.3219 69.5289 30.1461L69.1946 29.2753C69.1593 29.3018 68.9132 29.4601 68.6316 29.4601C68.4206 29.4601 68.2358 29.337 68.2358 28.9587V27.2004H69.7828V28.9762C69.7828 29.97 70.2577 30.4802 71.1372 30.4802C71.6034 30.4802 71.9903 30.3219 72.2543 30.1461L71.92 29.2753C71.8851 29.3018 71.6388 29.4601 71.3574 29.4601Z" fill="#B5BFC9"/>
<path d="M78.8073 27.8811C78.6275 26.6451 77.5494 25.771 76.3656 25.9432C75.0862 26.1294 74.2583 27.2807 74.4405 28.5342C74.6494 29.9703 75.8837 30.6352 77.1546 30.4502C77.7203 30.368 78.2633 30.129 78.7038 29.7359L78.147 28.9637C77.8567 29.2282 77.4391 29.4134 77.0213 29.4741C76.4469 29.5577 75.909 29.3427 75.6824 28.7624L78.842 28.3028C78.8422 28.3026 78.8378 28.09 78.8073 27.8811ZM75.5524 27.99C75.5858 27.4253 75.9678 26.9964 76.4725 26.9229C77.0034 26.8457 77.4919 27.1479 77.6587 27.6836L75.5524 27.99Z" fill="#B5BFC9"/>
<path d="M91.5985 27.8811C91.4187 26.6451 90.3406 25.771 89.1569 25.9432C87.8775 26.1294 87.0495 27.2807 87.2317 28.5342C87.4406 29.9703 88.675 30.6352 89.9458 30.4502C90.5115 30.368 91.0545 30.129 91.4949 29.7359L90.9382 28.9637C90.6479 29.2282 90.2303 29.4134 89.8126 29.4741C89.2381 29.5577 88.7003 29.3427 88.4737 28.7624L91.6331 28.3028C91.6331 28.3026 91.6287 28.09 91.5985 27.8811ZM88.3436 27.99C88.3771 27.4253 88.759 26.9964 89.2638 26.9229C89.7948 26.8457 90.2831 27.1479 90.45 27.6836L88.3436 27.99Z" fill="#B5BFC9"/>
<path d="M86.7279 24.8865H85.5493V30.3924H86.7279V24.8865Z" fill="#B5BFC9"/>
<path d="M94.0389 27.6396C93.6345 27.5515 93.2649 27.4725 93.2649 27.2262C93.2649 27.0416 93.52 26.9183 93.7926 26.9183C94.1797 26.9183 94.5841 27.0151 95.0152 27.2262L95.411 26.3467C94.9537 26.0828 94.4963 25.907 93.7751 25.907C92.9484 25.907 92.0688 26.3819 92.0688 27.2791C92.0688 28.1234 92.7813 28.4138 93.6518 28.6424C94.0302 28.7479 94.4083 28.8094 94.4083 29.0733C94.4083 29.3371 93.9597 29.4426 93.6871 29.4426C93.0274 29.4426 92.614 29.2051 92.315 28.9765L91.8928 29.8825C92.1391 30.1111 92.7458 30.4805 93.6869 30.4805C94.5049 30.4805 95.6042 30.1199 95.6042 29.038C95.6044 28.1408 94.7864 27.8154 94.0389 27.6396Z" fill="#B5BFC9"/>
<path d="M73.9076 26.2509H72.729V30.3925H73.9076V26.2509Z" fill="#B5BFC9"/>
<path d="M73.9076 24.8865H72.729V25.8024H73.9076V24.8865Z" fill="#B5BFC9"/>
<path d="M79.3088 30.3924H80.5378V28.1429H82.6223V27.0983H80.5378V25.9398H83.0699V24.8865H79.3088V30.3924Z" fill="#B5BFC9"/>
<path d="M37.9889 26.9554H37.3031V26.006H37.9889V25.7161C37.9889 24.6964 38.5514 24.2569 39.2985 24.2569C39.6942 24.2569 40.1336 24.3712 40.4413 24.5295L40.1071 25.3995C40.0104 25.3557 39.8168 25.2679 39.6147 25.2679C39.3688 25.2679 39.1663 25.3909 39.1663 25.8479V26.0062H40.2651V26.9556H39.1663V30.3927H37.9885V26.9554H37.9889Z" fill="#B5BFC9"/>
<path d="M40.6442 25.9972H41.8044V26.8411C41.9277 26.4807 42.3757 25.9094 43.3429 25.9094V27.1928C42.3232 27.1928 41.8222 27.6587 41.8222 28.7047V30.3925H40.6442V25.9972Z" fill="#B5BFC9"/>
<path d="M43.4187 28.195C43.4187 26.9204 44.4559 25.9094 45.766 25.9094C47.0846 25.9094 48.1216 26.9204 48.1216 28.195C48.1216 29.4696 47.0846 30.4805 45.766 30.4805C44.4559 30.4803 43.4187 29.4696 43.4187 28.195ZM46.9175 28.195C46.9175 27.5094 46.4251 26.9994 45.766 26.9994C45.1065 26.9994 44.6144 27.5094 44.6144 28.195C44.6144 28.8895 45.1067 29.3903 45.766 29.3903C46.4251 29.3903 46.9175 28.8895 46.9175 28.195Z" fill="#B5BFC9"/>
<path d="M48.5039 25.9972H49.6554V26.5862C49.9103 26.1906 50.4288 25.9094 50.9563 25.9094C51.6508 25.9094 52.0815 26.1994 52.3099 26.6916C52.6265 26.1643 53.233 25.9094 53.734 25.9094C54.9734 25.9094 55.3602 26.7621 55.3602 27.8871V30.3923H54.1822V28.0365C54.1822 27.4564 54.0417 27.0255 53.4174 27.0255C52.8372 27.0255 52.5208 27.4915 52.5208 28.0717V30.3923H51.3428V28.0365C51.3428 27.4564 51.2108 27.0255 50.5779 27.0255C49.98 27.0255 49.6813 27.5353 49.6813 28.1155V30.3923H48.5033V25.9972H48.5039Z" fill="#B5BFC9"/>
<path d="M37.3031 5.323H40.9658V21.7336H37.3031V5.323Z" fill="black"/>
<path d="M42.6 15.1933C42.6 11.4 45.6868 8.39142 49.5848 8.39142C51.3899 8.39142 52.9593 8.99298 54.2676 10.0657L52.1485 12.5248C51.5468 11.9754 50.7096 11.6353 49.6631 11.6353C47.6226 11.6353 46.1577 13.1266 46.1577 15.1933C46.1577 17.2337 47.544 18.751 49.7676 18.751C50.8664 18.751 51.939 18.3325 52.619 17.6786L54.4767 20.2944C53.2208 21.3671 51.4681 21.995 49.5846 21.995C45.6868 21.995 42.6 18.9866 42.6 15.1933Z" fill="black"/>
<path d="M54.537 15.1933C54.537 11.4 57.6238 8.39142 61.5218 8.39142C65.4457 8.39142 68.5329 11.4 68.5329 15.1933C68.5329 18.9866 65.4457 21.995 61.5218 21.995C57.6238 21.995 54.537 18.9866 54.537 15.1933ZM64.9487 15.1933C64.9487 13.1527 63.4838 11.6353 61.5218 11.6353C59.5598 11.6353 58.0949 13.1527 58.0949 15.1933C58.0949 17.26 59.5598 18.751 61.5218 18.751C63.4838 18.751 64.9487 17.26 64.9487 15.1933Z" fill="black"/>
<path d="M69.8457 8.65306H73.2726V10.4057C74.319 8.96688 75.8102 8.39142 77.406 8.39142C80.8592 8.39142 82.0627 10.615 82.0627 14.1991V21.7333H78.5571V14.6437C78.5571 12.7341 78.0601 11.7138 76.2811 11.7138C74.5285 11.7138 73.3513 13.1266 73.3513 15.1146V21.7333H69.8457V8.65306Z" fill="black"/>
<path d="M83.2393 19.719L84.5736 16.8936C85.934 17.8876 87.556 18.7511 90.1458 18.7511C91.5584 18.7511 93.285 18.0971 93.285 16.7628C93.285 15.4548 91.7677 15.1146 90.2764 14.7485C87.1112 14.0159 83.841 12.9434 83.841 9.41154C83.841 6.14153 86.9019 4.51947 90.1456 4.51947C92.7093 4.51947 94.6454 5.19968 96.3457 6.32453L95.0116 9.1499C93.6514 8.26041 91.8724 7.78948 90.1458 7.78948C89.2563 7.78948 87.5821 8.12959 87.5821 9.41135C87.5821 10.5101 88.8117 10.9026 90.4859 11.2951C93.4944 12.0013 97.1045 13.1264 97.1045 16.7626C97.1045 20.4251 93.5466 22.0209 90.1458 22.0209C86.0909 22.0211 84.1811 20.4776 83.2393 19.719Z" fill="black"/>
<path d="M97.9807 15.1933C97.9807 11.4 101.068 8.39142 104.966 8.39142C106.771 8.39142 108.34 8.99298 109.648 10.0657L107.529 12.5248C106.928 11.9754 106.09 11.6353 105.044 11.6353C103.003 11.6353 101.538 13.1266 101.538 15.1933C101.538 17.2337 102.925 18.751 105.149 18.751C106.247 18.751 107.32 18.3325 108 17.6786L109.858 20.2944C108.602 21.3671 106.849 21.995 104.966 21.995C101.068 21.995 97.9807 18.9866 97.9807 15.1933Z" fill="black"/>
<path d="M109.917 15.1933C109.917 11.4 113.004 8.39142 116.902 8.39142C120.826 8.39142 123.913 11.4 123.913 15.1933C123.913 18.9866 120.826 21.995 116.902 21.995C113.004 21.995 109.917 18.9866 109.917 15.1933ZM120.329 15.1933C120.329 13.1527 118.864 11.6353 116.902 11.6353C114.941 11.6353 113.476 13.1527 113.476 15.1933C113.476 17.26 114.941 18.751 116.902 18.751C118.864 18.751 120.329 17.26 120.329 15.1933Z" fill="black"/>
<path d="M125.09 16.4753V8.65308H128.596V16.0043C128.596 17.8355 129.381 18.6726 131.003 18.6726C132.834 18.6726 133.723 17.1292 133.723 15.3502V8.65308H137.229V21.7335H133.932V19.9022C133.148 21.1841 131.369 21.995 129.851 21.995C126.241 21.995 125.09 19.8759 125.09 16.4753Z" fill="black"/>
<path d="M140.553 17.5214V11.4782H138.644V8.65285H140.553V5.83167H144.059V8.65285H146.915V11.4782H144.059V17.4691C144.059 18.5941 144.608 18.9603 145.236 18.9603C146.073 18.9603 146.806 18.4894 146.91 18.4109L147.905 21.0009C147.12 21.524 145.969 21.995 144.582 21.995C141.966 21.995 140.553 20.4776 140.553 17.5214Z" fill="black"/>
<path d="M30.6956 13.6579L26.3656 6.546C25.025 4.34389 22.6333 3 20.0553 3H11.7178C9.13977 3 6.74811 4.34389 5.40742 6.546L1.0775 13.6579C-0.359167 16.0177 -0.359167 18.9821 1.0775 21.3421L5.40742 28.454C6.74811 30.6561 9.13977 32 11.7178 32H20.0553C22.6333 32 25.025 30.6561 26.3656 28.454L30.6956 21.3421C32.1322 18.9823 32.1322 16.0179 30.6956 13.6579Z" fill="#00C6FF"/>
<path d="M24.4938 24.0508L19.7 19.7117L19.792 19.5781C20.3796 18.7235 20.7912 17.752 20.9339 16.7247C21.5227 12.4893 18.0413 8.8788 13.8428 9.24717C10.6576 9.52655 8.10509 12.1289 7.88207 15.3185C7.61386 19.1508 10.6562 22.3549 14.4326 22.3549C15.434 22.3549 16.3965 22.1339 17.2932 21.698L17.4732 21.6104L22.5405 26.1978C22.8268 26.4584 23.1984 26.5899 23.5876 26.5741C23.9741 26.5556 24.331 26.3874 24.5918 26.1002C25.129 25.508 25.0854 24.5889 24.4938 24.0508ZM14.8603 19.9459C12.2207 20.2097 10.0109 18.0003 10.2743 15.3607C10.4695 13.4067 12.0495 11.826 14.0035 11.6303C16.6435 11.3659 18.8539 13.5759 18.5899 16.2161C18.3945 18.1701 16.8143 19.7506 14.8603 19.9459Z" fill="white"/>
</g>
<defs>
<clipPath id="clip0_503_7068">
<rect width="147.905" height="29" fill="white" transform="translate(0 3)"/>
</clipPath>
</defs>
</svg>
