<svg width="24" height="24" viewBox="0 0 24 24" fill="none" xmlns="http://www.w3.org/2000/svg">
<g clip-path="url(#clip0_19_865)">
<path d="M17.9275 0H6.07252C2.71877 0 0 2.71876 0 6.07251V17.9275C0 21.2812 2.71877 24 6.07252 24H17.9275C21.2813 24 24 21.2812 24 17.9275V6.07251C24 2.71876 21.2813 0 17.9275 0Z" fill="#00DDB3"/>
<path d="M18.2405 5.37537C14.1093 5.37537 12.5783 8.32511 11.3474 10.6948L10.5432 12.2109C9.23973 14.7239 8.26585 16.2515 5.7561 16.2515C5.60029 16.2515 5.44599 16.2822 5.30204 16.3418C5.15809 16.4014 5.02728 16.4888 4.9171 16.599C4.80693 16.7092 4.71949 16.84 4.65986 16.9839C4.60023 17.1279 4.56958 17.2822 4.56958 17.438V17.438C4.57002 17.7525 4.69517 18.0541 4.91759 18.2765C5.14 18.4989 5.44156 18.624 5.7561 18.6245V18.6245C9.88903 18.6245 11.4199 15.6747 12.6509 13.3051L13.4534 11.789C14.7586 9.27594 15.7324 7.74834 18.2405 7.74834C18.3965 7.74856 18.5509 7.71803 18.6951 7.6585C18.8392 7.59897 18.9702 7.51161 19.0806 7.40141C19.1909 7.29122 19.2785 7.16034 19.3382 7.01628C19.398 6.87223 19.4287 6.71781 19.4287 6.56186V6.56186C19.4282 6.24703 19.3029 5.94525 19.0801 5.72278C18.8573 5.50032 18.5554 5.37537 18.2405 5.37537V5.37537Z" fill="white"/>
</g>
<defs>
<clipPath id="clip0_19_865">
<rect width="24" height="24" fill="white"/>
</clipPath>
</defs>
</svg>
