<svg width="36" height="36" viewBox="0 0 36 36" fill="none" xmlns="http://www.w3.org/2000/svg">
<g clip-path="url(#clip0_3438_12007)">
<path d="M20.0585 4.875C16.5806 4.88514 13.2481 6.27121 10.7889 8.73043C8.32968 11.1896 6.94361 14.5222 6.93347 18L23.5619 21.5034L20.0585 4.875Z" fill="#ED6C47"/>
<path d="M20.0585 4.875C23.5363 4.88514 26.8688 6.27121 29.328 8.73043C31.7873 11.1896 33.1733 14.5222 33.1835 18L26.621 22.4606L20.0585 18V4.875Z" fill="#FF8F6B"/>
<path d="M20.0585 31.125C23.5363 31.1149 26.8688 29.7288 29.328 27.2696C31.7873 24.8104 33.1733 21.4778 33.1835 18H6.93347C6.94361 21.4778 8.32968 24.8104 10.7889 27.2696C13.2481 29.7288 16.5806 31.1149 20.0585 31.125Z" fill="#D35230"/>
<path opacity="0.1" d="M18.8078 9.5625H10.0328C7.88978 12.0875 6.78741 15.3331 6.94933 18.641C7.11124 21.9489 8.52531 25.0713 10.9047 27.375H18.8078C19.1391 27.3743 19.4566 27.2424 19.691 27.0082C19.9253 26.774 20.0575 26.4566 20.0584 26.1253V10.8122C20.0575 10.4809 19.9253 10.1635 19.691 9.92929C19.4566 9.69511 19.1391 9.56324 18.8078 9.5625Z" fill="black"/>
<path opacity="0.2" d="M17.8703 10.5H9.31464C7.38216 13.242 6.58098 16.6233 7.07774 19.9409C7.5745 23.2584 9.33096 26.2568 11.9818 28.3125H17.8712C18.2023 28.3115 18.5196 28.1795 18.7538 27.9454C18.9879 27.7112 19.1199 27.3939 19.1209 27.0628V11.7497C19.1199 11.4184 18.9878 11.101 18.7534 10.8668C18.5191 10.6326 18.2016 10.5007 17.8703 10.5Z" fill="black"/>
<path opacity="0.2" d="M17.8703 10.5H9.31465C7.65008 12.8601 6.81729 15.7065 6.94729 18.5916C7.07729 21.4767 8.16269 24.2367 10.0328 26.4375H17.8712C18.2023 26.4365 18.5196 26.3045 18.7538 26.0704C18.9879 25.8362 19.1199 25.5189 19.1209 25.1878V11.7497C19.1199 11.4184 18.9878 11.101 18.7534 10.8668C18.5191 10.6326 18.2016 10.5007 17.8703 10.5Z" fill="black"/>
<path opacity="0.2" d="M16.9328 10.5H9.31465C7.65008 12.8601 6.81729 15.7065 6.94729 18.5916C7.07729 21.4767 8.16269 24.2367 10.0328 26.4375H16.9337C17.2648 26.4365 17.5821 26.3045 17.8163 26.0704C18.0504 25.8362 18.1824 25.5189 18.1834 25.1878V11.7497C18.1824 11.4184 18.0503 11.101 17.8159 10.8668C17.5816 10.6326 17.2641 10.5007 16.9328 10.5Z" fill="black"/>
<path d="M4.43316 10.5H16.9338C17.2652 10.5 17.5831 10.6317 17.8174 10.866C18.0518 11.1004 18.1835 11.4182 18.1835 11.7497V24.2503C18.1835 24.5817 18.0518 24.8996 17.8174 25.134C17.5831 25.3683 17.2652 25.5 16.9338 25.5H4.43316C4.10172 25.5 3.78386 25.3683 3.5495 25.134C3.31513 24.8996 3.18347 24.5817 3.18347 24.2503V11.7497C3.18347 11.4182 3.31513 11.1004 3.5495 10.866C3.78386 10.6317 4.10172 10.5 4.43316 10.5Z" fill="#C43E1C"/>
<path d="M10.6807 13.3125C11.6038 13.2504 12.519 13.5178 13.2635 14.0672C13.5688 14.3397 13.8082 14.678 13.9634 15.0566C14.1187 15.4352 14.1858 15.8442 14.1597 16.2525C14.17 16.7828 14.015 17.3031 13.7163 17.7413C13.4122 18.2256 12.9747 18.6117 12.4563 18.8532C11.8636 19.1283 11.2158 19.2643 10.5625 19.2507H8.77191V22.6875H6.93347V13.3125H10.6807ZM8.77097 17.7029H10.3525C10.854 17.7397 11.3516 17.5917 11.7513 17.2866C11.9101 17.1844 12.038 17.0409 12.1213 16.8714C12.2046 16.7019 12.24 16.5129 12.2238 16.3247C12.2238 15.2879 11.6197 14.7694 10.4116 14.7694H8.77097V17.7029Z" fill="#F9F7F7"/>
</g>
<defs>
<clipPath id="clip0_3438_12007">
<rect width="30.2663" height="30" fill="white" transform="translate(3 3)"/>
</clipPath>
</defs>
</svg>
