<svg width="266" height="110" viewBox="0 0 266 110" fill="none" xmlns="http://www.w3.org/2000/svg">
<path d="M241.52 40.6547C236.202 40.6547 236.757 47.1912 236.537 54.1696H245.398C245.398 46.3038 245.398 40.6547 241.52 40.6547ZM236.537 65.5799C236.537 71.8933 239.638 73.1117 244.844 73.1117C250.827 73.1117 258.912 71.3381 262.014 70.7847V86.0731C259.578 86.9599 252.156 89.0625 244.844 89.0625C231.662 89.0625 215.598 86.9581 215.598 58.8216C215.598 34.0073 228.227 28.1364 241.52 28.1364C255.146 28.1364 265.005 35.1153 265.005 58.5998V65.5799H236.537ZM184.573 43.6454C183.356 43.6454 180.918 44.6424 179.589 45.4189V73.776C180.585 74.1099 182.358 74.3312 183.134 74.3312C186.79 74.3312 189.006 71.229 189.006 58.2688C189.004 45.0855 188.007 43.6454 184.573 43.6454V43.6454ZM187.01 89.0637C184.351 89.0637 181.582 88.2885 179.588 87.8448V109.004H158.54V29.2444H175.599L178.702 32.8999C181.914 30.0202 186.457 28.1364 191.22 28.1364C199.859 28.1364 210.051 30.573 210.051 58.267C210.051 88.6219 194.764 89.0637 187.01 89.0637V89.0637ZM139.15 22.0442C133.28 22.0442 128.738 17.2806 128.738 11.52C128.738 5.75935 133.28 0.995789 139.15 0.995789C145.022 0.995789 149.564 5.75935 149.564 11.52C149.564 17.2806 145.022 22.0442 139.15 22.0442ZM128.627 87.9563V29.2444H149.675V87.9563H128.627ZM115.883 45.7504C112.56 45.7504 110.011 47.0803 108.903 47.7446V87.9563H87.8562V29.2444H104.584L107.685 34.8935C108.903 31.2379 112.227 28.1358 117.101 28.1358C120.425 28.1358 122.64 28.8007 123.636 29.3541V46.856C121.531 46.3038 118.763 45.7504 115.883 45.7504ZM75.8877 73.1123C77.2169 73.1123 81.8701 72.4485 83.4194 72.2255V87.1805C80.2081 87.9552 73.1177 89.0637 68.4656 89.0637C62.4832 89.0637 51.2952 88.4 51.2952 72.1158V42.6489H43.541V29.2444H51.2964L53.9549 15.9514L72.3436 11.5206V29.245H83.4212L80.6524 42.6495H72.3442V68.3499C72.343 72.3364 73.5614 73.1123 75.8877 73.1123ZM21.4902 46.1935C21.4902 48.5198 23.0419 49.2951 26.6968 50.9565L28.9128 51.9542C34.1189 54.2805 41.3185 58.047 41.3185 69.1252C41.3185 86.8489 28.1358 89.0643 18.7202 89.0643C12.6274 89.0643 6.20243 87.6242 1.88195 86.2961V71.1187C5.64783 72.1176 12.1849 73.6663 15.064 73.6663C18.2765 73.6663 20.7137 73.2244 20.7137 70.3435C20.7137 68.1281 19.1627 67.1316 15.7289 65.5811L13.0699 64.3622C8.08567 62.0353 0.995193 58.0488 0.995193 47.3027C0.995193 31.5719 13.2911 28.1388 23.5941 28.1388C31.3489 28.1388 36.4446 29.9105 39.1025 30.9082V45.6413C36.0003 44.6448 29.6875 43.315 25.921 43.315C23.3734 43.3138 21.4902 43.9775 21.4902 46.1935V46.1935Z" fill="#636C7E"/>
</svg>
