<svg width="24" height="24" viewBox="0 0 24 24" fill="none" xmlns="http://www.w3.org/2000/svg">
<path d="M18.71 7.20998C18.617 7.11625 18.5064 7.04186 18.3846 6.99109C18.2627 6.94032 18.132 6.91418 18 6.91418C17.868 6.91418 17.7373 6.94032 17.6154 6.99109C17.4936 7.04186 17.383 7.11625 17.29 7.20998L9.84001 14.67L6.71001 11.53C6.61349 11.4367 6.49955 11.3634 6.37469 11.3142C6.24984 11.265 6.11651 11.2409 5.98233 11.2432C5.84815 11.2455 5.71574 11.2743 5.59266 11.3278C5.46959 11.3812 5.35825 11.4585 5.26501 11.555C5.17177 11.6515 5.09846 11.7654 5.04925 11.8903C5.00005 12.0152 4.97592 12.1485 4.97824 12.2827C4.98056 12.4168 5.00929 12.5493 5.06278 12.6723C5.11628 12.7954 5.19349 12.9067 5.29001 13L9.13001 16.84C9.22297 16.9337 9.33358 17.0081 9.45543 17.0589C9.57729 17.1096 9.708 17.1358 9.84001 17.1358C9.97202 17.1358 10.1027 17.1096 10.2246 17.0589C10.3464 17.0081 10.457 16.9337 10.55 16.84L18.71 8.67998C18.8115 8.58634 18.8925 8.47269 18.9479 8.34619C19.0033 8.21969 19.0319 8.08308 19.0319 7.94498C19.0319 7.80688 19.0033 7.67028 18.9479 7.54378C18.8925 7.41728 18.8115 7.30363 18.71 7.20998Z" fill="#8F95B3"/>
</svg>
