<?xml version="1.0" encoding="UTF-8"?>
<svg width="24px" height="24px" viewBox="0 0 24 24" version="1.1" xmlns="http://www.w3.org/2000/svg" xmlns:xlink="http://www.w3.org/1999/xlink">
    <!-- Generator: Sketch 48.2 (47327) - http://www.bohemiancoding.com/sketch -->
    <title>Transactions</title>
    <desc>Created with Sketch.</desc>
    <defs></defs>
    <g id="Assets" stroke="none" stroke-width="1" fill="none" fill-rule="evenodd">
        <g id="Transactions" fill="#000000" fill-rule="nonzero">
            <path d="M4.61825,15.923 C4.74025,15.974 4.86925,16 5.00025,16 C5.13025,16 5.26025,15.974 5.38225,15.923 C5.50525,15.872 5.61525,15.799 5.70725,15.706 L7.70725,13.707 C8.09725,13.317 8.09725,12.684 7.70725,12.293 C7.31625,11.902 6.68325,11.902 6.29325,12.293 L6.00025,12.586 L6.00025,7 C6.00025,6.448 6.44925,6 7.00025,6 L19.00025,6 C19.55225,6 20.00025,5.553 20.00025,5 C20.00025,4.447 19.55225,4 19.00025,4 L7.00025,4 C5.34625,4 4.00025,5.346 4.00025,7 L4.00025,12.586 L3.70725,12.293 C3.31625,11.902 2.68325,11.902 2.29325,12.293 C1.90225,12.684 1.90225,13.317 2.29325,13.707 L4.29225,15.706 C4.38525,15.799 4.49525,15.872 4.61825,15.923 M21.70725,10.293 L19.70725,8.294 C19.61525,8.201 19.50525,8.128 19.38225,8.077 C19.13825,7.976 18.86225,7.976 18.61825,8.077 C18.49525,8.128 18.38525,8.201 18.29225,8.294 L16.29325,10.293 C15.90225,10.684 15.90225,11.317 16.29325,11.707 C16.68325,12.098 17.31625,12.098 17.70725,11.707 L18.00025,11.414 L18.00025,17 C18.00025,17.552 17.55125,18 17.00025,18 L5.00025,18 C4.44825,18 4.00025,18.447 4.00025,19 C4.00025,19.553 4.44825,20 5.00025,20 L17.00025,20 C18.65425,20 20.00025,18.654 20.00025,17 L20.00025,11.414 L20.29325,11.707 C20.48825,11.902 20.74425,12 21.00025,12 C21.25625,12 21.51225,11.902 21.70725,11.707 C22.09725,11.317 22.09725,10.684 21.70725,10.293" id="Fill-27"></path>
        </g>
    </g>
</svg>