<svg width="36" height="36" viewBox="0 0 36 36" fill="none" xmlns="http://www.w3.org/2000/svg">
<g clip-path="url(#clip0_3438_12019)">
<path d="M31.9322 4.875H11.9316C11.6001 4.875 11.2823 5.00666 11.0479 5.24102C10.8135 5.47539 10.6819 5.79325 10.6819 6.12469V11.4375L21.9319 14.7188L33.1819 11.4375V6.12469C33.1819 5.79325 33.0502 5.47539 32.8159 5.24102C32.5815 5.00666 32.2636 4.875 31.9322 4.875Z" fill="#41A5EE"/>
<path d="M33.1819 11.4375H10.6819V18L21.9319 21.2812L33.1819 18V11.4375Z" fill="#2B7CD3"/>
<path d="M33.1819 18H10.6819V24.5625L21.9319 27.8438L33.1819 24.5625V18Z" fill="#185ABD"/>
<path d="M33.1819 24.5625H10.6819V29.8753C10.6819 30.2067 10.8135 30.5246 11.0479 30.759C11.2823 30.9933 11.6001 31.125 11.9316 31.125H31.9322C32.2636 31.125 32.5815 30.9933 32.8159 30.759C33.0502 30.5246 33.1819 30.2067 33.1819 29.8753V24.5625Z" fill="#103F91"/>
<path opacity="0.1" d="M18.8072 9.5625H10.6819V27.375H18.8072C19.1383 27.374 19.4556 27.242 19.6898 27.0079C19.9239 26.7737 20.0559 26.4564 20.0569 26.1253V10.8122C20.0559 10.4811 19.9239 10.1638 19.6898 9.92962C19.4556 9.69547 19.1383 9.56349 18.8072 9.5625Z" fill="black"/>
<path opacity="0.2" d="M17.8697 10.5H10.6819V28.3125H17.8697C18.2008 28.3115 18.5181 28.1795 18.7523 27.9454C18.9864 27.7112 19.1184 27.3939 19.1194 27.0628V11.7497C19.1184 11.4186 18.9864 11.1013 18.7523 10.8671C18.5181 10.633 18.2008 10.501 17.8697 10.5Z" fill="black"/>
<path opacity="0.2" d="M17.8697 10.5H10.6819V26.4375H17.8697C18.2008 26.4365 18.5181 26.3045 18.7523 26.0704C18.9864 25.8362 19.1184 25.5189 19.1194 25.1878V11.7497C19.1184 11.4186 18.9864 11.1013 18.7523 10.8671C18.5181 10.633 18.2008 10.501 17.8697 10.5Z" fill="black"/>
<path opacity="0.2" d="M16.9322 10.5H10.6819V26.4375H16.9322C17.2633 26.4365 17.5806 26.3045 17.8148 26.0704C18.0489 25.8362 18.1809 25.5189 18.1819 25.1878V11.7497C18.1809 11.4186 18.0489 11.1013 17.8148 10.8671C17.5806 10.633 17.2633 10.501 16.9322 10.5Z" fill="black"/>
<path d="M4.43145 10.5H16.9321C17.2635 10.5 17.5814 10.6317 17.8157 10.866C18.0501 11.1004 18.1818 11.4182 18.1818 11.7497V24.2503C18.1818 24.5817 18.0501 24.8996 17.8157 25.134C17.5814 25.3683 17.2635 25.5 16.9321 25.5H4.43145C4.10001 25.5 3.78215 25.3683 3.54779 25.134C3.31343 24.8996 3.18176 24.5817 3.18176 24.2503V11.7497C3.18176 11.4182 3.31343 11.1004 3.54779 10.866C3.78215 10.6317 4.10001 10.5 4.43145 10.5Z" fill="#185ABD"/>
<path d="M14.385 22.6875H12.6975L10.7288 16.2188L8.66626 22.6875H6.97876L5.10376 13.3125H6.79126L8.10376 19.875L10.0725 13.5H11.4788L13.3538 19.875L14.6663 13.3125H16.26L14.385 22.6875Z" fill="white"/>
</g>
<defs>
<clipPath id="clip0_3438_12019">
<rect width="30.2419" height="30" fill="white" transform="translate(3 3)"/>
</clipPath>
</defs>
</svg>
